<svg width="1562" height="464" viewBox="0 0 1562 464" fill="none" xmlns="http://www.w3.org/2000/svg">
<g clip-path="url(#clip0_5_71)">
<path d="M324.549 27.9968C352.853 20.7986 394.061 13.9231 423.844 7.92871C422.301 17.6645 418.893 29.7816 416.63 39.6557L401.6 105.299C391.686 96.3544 382.673 85.6696 372.558 76.4887C368.238 81.6616 356.645 92.2867 351.383 97.3557L311.987 135.507L261.081 184.996C253.855 192.011 241.798 204.519 234.495 210.401C239.661 223.205 239.074 229.094 235.555 242.045C248.723 254.761 262.004 267.359 275.397 279.836C303.453 242.945 293.362 215.417 296.147 175.161L324.439 147.037C322.983 198.492 333.031 258.248 296.072 299.441C304.253 307.379 315.981 318.651 324.814 325.608C365.426 270.909 362.723 247.656 362.656 181.832L362.651 111.875L369.867 103.182C374.941 108.9 385.483 121.385 390.736 125.971L390.678 197.392C390.672 210.843 391.239 232.138 389.783 244.898C385.609 281.484 368.266 317.105 345.558 345.601C367.424 366.965 400.591 400.608 423.286 419.819C423.366 425.424 423.499 431.104 423.518 436.702C386.486 436.623 344.932 437.84 308.382 436.479C297.916 426.685 286.692 417.616 276.513 408.014C262.353 421.529 214.425 453.261 196.019 463.548C153.893 437.408 111.664 409.082 75.6628 374.592C73.6927 372.705 71.1688 370.521 69.3965 368.5C63.86 362.359 55.722 354.668 49.7068 348.559C56.61 342.029 63.3713 335.35 69.9854 328.528C77.6058 322.619 96.2007 303.672 103.757 296.251L157.982 243.658C149.958 203.926 175.056 178.875 214.429 190.893C258.505 146.975 307.645 99.9132 353.024 57.1744C343.999 47.2714 333.829 37.9106 324.549 27.9968ZM136.392 303.742C142.331 308.35 149.87 315.512 156.083 320.652C168.584 330.943 181.645 340.533 195.205 349.38C208.679 341.345 216.389 335.127 228.743 325.373C258.673 353.33 289.215 380.581 318.997 408.805L371.181 408.718C362.432 401.498 352.053 391.155 343.696 383.234L300.381 342.399C273.888 317.497 241.829 289.445 216.789 263.939C200.865 269.613 193.069 270.307 177.316 263.695L136.392 303.742ZM256.685 388.682C252.569 384.571 230.632 362.921 227.103 362.574C221.439 366.748 215.689 370.807 209.86 374.747C209.835 389.173 210.329 408.389 209.591 422.44C213.855 419.375 223.281 413.829 226.814 410.779C236.808 403.463 246.765 396.097 256.685 388.682ZM115.938 323.573C107.26 331.982 98.2304 340.625 89.7564 349.205C108.752 368.969 131.111 386.108 153.207 402.215C162.728 409.156 173.5 415.697 182.481 423.098C181.978 407.872 182.397 390.167 182.418 374.755C156.428 358.238 139.2 341.926 115.938 323.573Z" fill="#3D236E"/>
<path d="M324.549 27.9968C352.853 20.7986 394.061 13.9231 423.844 7.92871C422.301 17.6645 418.893 29.7816 416.63 39.6557L401.6 105.299C391.686 96.3544 382.673 85.6697 372.558 76.4887C368.238 81.6616 356.645 92.2867 351.383 97.3557L311.987 135.507L261.081 184.996C253.855 192.011 241.798 204.519 234.495 210.401C239.661 223.205 239.074 229.094 235.555 242.045C230.17 252.805 226.857 257.147 216.789 263.939C200.865 269.613 193.069 270.307 177.316 263.695L136.392 303.742L115.938 323.573C107.26 331.982 98.2304 340.625 89.7564 349.205L69.3965 368.5C63.86 362.359 55.722 354.668 49.7068 348.559C56.61 342.029 63.3713 335.35 69.9854 328.528C77.6058 322.619 96.2007 303.672 103.757 296.251L157.982 243.658C149.958 203.926 175.056 178.875 214.429 190.893C258.505 146.975 307.645 99.9132 353.024 57.1744C343.999 47.2714 333.829 37.9106 324.549 27.9968Z" fill="#149976"/>
<path d="M589.443 92.86C590.089 92.7082 590.528 92.6016 591.193 92.5392C665.609 85.5887 728.742 136.364 733.864 212.447C736.258 245.257 725.578 277.681 704.158 302.64C712.761 310.604 722.234 320.515 730.171 329.146C720.457 340.908 709.929 350.855 698.772 361.2C689.027 351.531 679.129 342.018 669.08 332.665L660.653 336.871C580.851 371.468 487.038 330.005 474.929 239.728C464.837 164.482 514.264 100.912 589.443 92.86ZM610.248 270.836C606.053 266.415 601.784 262.066 597.442 257.789C607.77 247.941 618.693 237.818 628.659 227.668C640.643 238.708 658.267 258.154 669.759 267.132C683.696 244.376 688.241 225.918 681.773 198.935C676.953 178.798 664.34 161.399 646.704 150.564C630.824 140.872 613.535 137.902 595.234 138.944C548.405 144.452 517.746 184.435 523.447 231.066C526.119 252.708 537.287 272.396 554.489 285.789C571.621 299.164 593.518 303.109 614.753 300.455C621.543 299.651 628.194 297.94 634.529 295.37C626.496 287.922 618.09 277.414 610.248 270.836Z" fill="#3D236E"/>
<path d="M0.348371 46.6912C44.4747 35.5564 88.7139 24.8726 133.058 14.6407C152.725 9.98651 173.313 2.81998 193.343 0.35553C200.98 -0.584342 285.82 19.5895 291.241 23.8469C303.795 33.7047 313.723 47.7829 325.301 58.9095C286.658 49.8877 248.11 40.4627 209.664 30.6366C209.679 43.5824 209.783 56.5282 209.974 69.4722C235.756 74.7283 268.705 83.7267 294.603 90.4404C286.531 97.935 278.54 105.516 270.631 113.183C246.812 108.215 222.921 98.4465 198.666 96.0507C185.92 94.7909 115.276 114.652 96.5728 119.313L96.4544 188.055C96.4237 215.884 93.8483 243.042 110.076 267.474C103.046 274.251 96.0714 281.27 89.1249 288.148C62.5366 251.164 68.2627 210.398 68.344 167.721C68.3747 151.583 66.5825 132.057 68.0739 116.413C54.5693 106.283 42.3221 95.964 28.0171 85.5287L27.9538 182.764C27.9385 251.139 25.6919 271.688 69.9853 328.528C63.3712 335.35 56.6099 342.029 49.7067 348.559C-6.50872 281.219 -0.0734852 242.416 -0.180077 160.072C-0.40139 122.278 -0.225237 84.4822 0.348371 46.6912ZM48.2524 63.9369C53.9957 68.6788 59.7805 73.3691 65.606 78.0079C72.1723 83.0344 78.6473 88.1802 85.0256 93.4426C117.299 85.9778 150.446 77.0002 182.44 69.8599C182.489 58.5905 183.011 42.8983 182.241 31.9768C181.308 31.3659 181.477 31.2403 180.602 31.1824C136.923 42.8305 92.1564 52.7028 48.2524 63.9369Z" fill="#3D236E"/>
<path d="M1448.68 157.849C1476.84 152.608 1497.81 163.838 1516.68 183.322C1515.87 176.295 1516.02 169.645 1516.04 162.595L1562.01 162.545C1560.8 221.076 1561.55 285.714 1562.08 344.503C1548.41 343.815 1530.31 344.209 1516.46 344.281C1516.37 337.76 1516.51 330.946 1516.56 324.399C1513.36 327.125 1509.98 330.314 1506.85 333.161C1496.96 340.874 1485.29 345.979 1472.91 348.01C1449.4 351.839 1425.33 346.069 1406.11 331.994C1342.94 285.055 1363.39 169.702 1448.68 157.849ZM1473.66 303.349C1501.34 299.209 1520.42 273.415 1516.3 245.725C1512.17 218.035 1486.39 198.931 1458.71 203.047C1431.02 207.165 1411.91 232.971 1416.04 260.677C1420.17 288.383 1445.97 307.49 1473.66 303.349Z" fill="#3D236E"/>
<path d="M839.232 157.892C844.228 157.033 855.727 157.077 860.695 157.433C885.04 158.947 907.722 170.265 923.575 188.804C944.668 213.455 946.095 241.604 943.819 272.175L804.798 272.261C816.008 299.009 832.801 309.483 862.637 307.428C877.334 306.416 889.746 299.562 899.158 288.243C903.603 291.063 907.234 293.207 911.877 295.693C919.944 299.848 929.582 305.76 937.586 310.38C936.935 311.525 936.204 312.625 935.409 313.675C903.829 355.654 833.135 360.19 792.756 329.399C773.534 314.684 760.905 292.964 757.626 268.973C750.174 213.533 782.513 165.289 839.232 157.892ZM805.141 235.918L862.881 235.949L897.695 235.856C890.83 207.496 872.303 196.338 843.866 198.411C821.103 203.006 811.112 213.799 805.141 235.918Z" fill="#3D236E"/>
<path d="M1090.98 162.631C1108.12 162.468 1125.28 162.466 1142.43 162.621C1136.63 173.843 1124.25 208.145 1119.61 221.263C1114.73 231.727 1110.43 244.472 1106.07 255.394C1094.27 284.975 1083.74 315.095 1071.22 344.402L1017.25 344.361C1012.83 334.716 1007.75 319.601 1003.84 309.367L981.803 252.598C970.801 223.569 957.341 191.939 947.17 162.962C955.86 162.345 967.766 162.6 976.708 162.551L998.768 162.545C1014.49 203.697 1027.59 247.949 1044.49 288.739C1048.86 274.859 1055.11 259.308 1060.3 245.446C1070.74 217.923 1080.97 190.318 1090.98 162.631Z" fill="#3D236E"/>
<path d="M1352.98 157.986C1355.84 158.055 1355.25 157.594 1356.95 159.183C1358 170.775 1357.13 194.382 1357.36 207.242C1356.69 207.234 1356.02 207.23 1355.36 207.229C1338.66 207.204 1324.47 209.462 1312.28 221.784C1295.01 239.241 1297.76 264.794 1297.75 287.26C1297.72 306.278 1297.79 325.295 1297.96 344.312C1282.12 344.406 1266.28 344.391 1250.43 344.265C1250.11 336.599 1250.16 328.527 1250.09 320.825L1250.35 162.702C1265.05 162.13 1282.86 162.552 1297.78 162.538C1297.99 172.248 1297.78 182.768 1297.76 192.545C1312.62 167.819 1322.73 158.766 1352.98 157.986Z" fill="#3D236E"/>
<path d="M1194.57 162.557L1213.99 162.597C1213.27 188.095 1213.91 215.997 1213.93 241.678C1213.67 275.889 1213.66 310.101 1213.91 344.312C1205.78 343.808 1193.88 344.225 1185.47 344.281L1165.57 344.185C1167 331.829 1165.88 296.183 1165.84 282.856L1166.01 162.723C1175.42 162.539 1185.13 162.609 1194.57 162.557Z" fill="#3D236E"/>
<path d="M1186.57 82.6779C1202.44 81.0593 1216.64 92.5511 1218.38 108.415C1220.12 124.28 1208.74 138.575 1192.89 140.432C1176.88 142.309 1162.4 130.776 1160.65 114.742C1158.89 98.7081 1170.53 84.3136 1186.57 82.6779Z" fill="#3D236E"/>
</g>
<defs>
<clipPath id="clip0_5_71">
<rect width="1562" height="464" fill="white"/>
</clipPath>
</defs>
</svg>
