<svg xmlns="http://www.w3.org/2000/svg" width="335" height="371" viewBox="0 0 335 371" fill="none"><metadata><rdf:RDF xmlns:rdf="http://www.w3.org/1999/02/22-rdf-syntax-ns#" xmlns:dc="http://purl.org/dc/elements/1.1/"><rdf:Description><dc:creator>RealFaviconGenerator</dc:creator><dc:source>https://realfavicongenerator.net</dc:source></rdf:Description></rdf:RDF></metadata><g clip-path="url(#clip0_5_90)">
<path d="M255.623 23.2946C261.663 21.2781 271.065 20.2553 277.535 18.7006C281.615 18.0091 286.055 16.1921 290.085 15.5331C304.533 13.1706 319.893 9.00807 334.335 7.25732C333.318 10.1583 332.958 13.0078 332.288 15.9723C331.163 20.9588 330.245 26.1401 329.105 31.1058L321.848 63.1201C320.9 67.2498 320.035 71.2548 319.213 75.4128C318.508 78.9703 317.66 81.7233 317.418 85.3678C312.693 82.0788 309.143 76.5668 304.7 72.7681C301.828 70.3126 297.36 63.0051 293.438 62.3916C291.2 63.9666 288.93 66.6348 286.98 68.6191L274.993 80.6973L231.243 124.254C228.753 126.765 226.03 129.135 223.535 131.64C214.345 140.863 205.043 150.013 195.884 159.255C192.629 162.539 188.275 166.545 185.42 170.082C190.152 180.058 188.492 184.649 186.416 194.422C188.625 195.512 192.041 200.439 193.943 202.295C196.217 204.513 198.837 206.523 201.102 208.707L212.303 219.325C214.408 221.325 215.593 222.938 218.033 224.609C222.078 218.206 225.355 212.374 227.848 205.203C229.08 201.658 230.593 198.666 231.468 194.847C234.15 183.127 233.055 171.03 233.235 159.165C233.295 155.13 232.88 144.658 233.59 141.252C236.845 137.284 242.13 132.564 245.838 128.914C249.055 125.748 252.365 122.431 255.635 119.341C255.21 124.512 255.385 130.596 255.358 135.854L255.403 172.213C255.363 178.849 255.283 188.959 254.103 195.336C252.248 205.363 247.965 216.508 243.655 225.763C240.993 231.485 237.303 235.87 234.555 240.742C236.738 244.03 241.433 247.59 244.323 250.32C247.643 253.457 252.61 258.742 256.398 261.145C260.08 256.492 263.593 251.142 266.843 246.145C268.045 244.297 269.53 240.882 270.753 238.76C271.703 237.112 274.17 233.495 274.805 231.945C279.63 220.069 284.208 207.498 285.83 194.726C286.15 192.223 285.93 189.146 285.99 186.522C286.193 177.809 286.338 168.997 286.258 160.281C286.23 157.039 285.438 153.805 285.47 150.551C285.23 144.559 285.84 139.48 286.273 133.57C286.61 129.45 286.065 125.048 286.278 120.965C286.523 116.301 285.483 110.822 285.798 106.374C286.205 100.675 285.873 93.6046 286.518 88.0898C287.725 86.7458 289.53 84.4141 291.2 83.9838C295.285 86.2168 300.045 92.9601 303.485 96.2146C305.945 98.5423 308.083 99.9863 308.105 103.435C308.17 113.338 308.13 123.228 308.103 133.114L308.11 175.326C308.103 182.311 308.303 189.411 307.865 196.37C307.523 201.036 306.083 205.544 305.08 210.052C302.525 221.522 299.32 232.737 293.893 243.222C291.613 247.702 289.35 252.247 286.93 256.647C285.745 258.797 283.425 261.007 282.248 263.205C279.38 268.55 275.885 272.65 272.163 277.33C276.228 280.45 279.073 283.897 282.693 287.402C290.028 294.51 297.49 301.592 304.483 309.035C305.873 310.515 307.82 311.817 309.263 313.287C317.143 321.752 326.025 329.327 333.938 337.76C335.18 339.082 335.41 349.362 334.66 350.382C330.97 351.012 322.495 350.775 318.458 350.772L289.04 350.757L259.923 350.755C256.298 350.757 248.163 350.992 244.9 350.585C239.763 346.732 236.065 342.862 231.345 338.655C228.46 336.085 225.238 333.717 222.445 330.835C221.45 329.812 219.425 328.622 218.503 327.562C214.878 332.067 211.073 333.93 207.13 337.462C202.465 341.642 198.292 343.667 193.537 347.227C187.772 351.54 182.791 355.587 176.309 359.162C170.43 362.405 161.3 369.665 154.876 371.065C151.739 369.857 147.614 366.875 144.606 365.182C134.382 359.425 125.384 352.39 115.962 345.607L103.352 336.417C100.708 334.53 97.7596 332.765 95.2928 330.692C83.9761 321.192 72.1918 312.39 61.8055 301.82C59.666 299.645 57.0938 298.21 55.0021 295.77C50.0098 291.845 43.4851 284.415 40.0656 279.06C43.1548 275.06 48.0258 270.807 51.6933 267.345C53.4121 265.722 54.8311 263.857 56.3673 262.065C58.9796 260.917 65.0341 254.12 67.3536 251.865L99.8118 219.911C103.451 216.359 106.934 213.875 110.497 209.869C113.692 206.277 118.21 203.292 121.343 199.286C122.708 197.54 124.502 196.624 126.135 194.4C121.738 183.575 124.128 167.99 133.211 160.015C135.645 157.878 137.988 155.641 140.947 154.252C150.525 149.753 159.717 150.147 169.451 153.571C171.726 151.975 177.116 146.519 179.193 144.428L192.869 130.744L252.925 71.4508C256.828 67.6006 260.268 63.5326 264.585 60.0176C266.043 58.6968 267.61 56.3836 269.118 55.1836C272.448 52.5318 275.56 48.5536 278.795 46.0296C272.22 40.9346 267.883 35.7931 262.053 30.0896C259.863 27.9468 258.095 25.2236 255.623 23.2946ZM108.2 244.002C109.43 245.792 113.336 248.055 115.097 249.63C116.97 251.302 118.694 253.097 120.54 254.78C122.046 256.155 123.925 257.565 125.537 258.905C127.695 260.7 129.922 263.02 132.085 264.72C135.328 267.265 138.75 269.417 142.121 271.947C145.502 274.485 149.701 278.257 153.683 279.562C154.485 279.825 155.587 279.87 156.344 279.54C164.945 275.775 173.884 266.702 181.815 262.092L182.059 261.952C183.567 262.917 184.268 263.902 185.575 265.067C191.169 270.06 196.054 275.602 201.873 280.362C205.025 282.942 208.19 285.932 211.1 288.752L239.613 316.495C242.37 319.165 250.383 327.257 252.905 328.72C260.913 328.492 268.92 328.44 276.93 328.557C281.635 328.607 288.058 328.947 292.578 328.365C287.933 324.44 281.618 317.665 277.095 313.282L244.66 281.805C235.528 273.015 225.495 264.902 216.723 255.687C204.778 243.142 191.103 232.265 179.479 219.405C177.094 216.766 174.286 214.106 171.773 211.535C169.216 212.099 166.561 213.45 163.942 214.156C155.948 216.312 148.311 214.628 140.73 211.853C136.069 215.161 131.043 221.202 126.948 225.366C126.054 226.274 121.783 229.995 121.415 230.57C119.328 233.842 109.419 241.282 108.2 244.002ZM71.8601 280.252C75.9943 283.992 79.5108 288.39 83.9983 291.86C85.8328 293.445 87.4881 295.362 89.3146 296.935C98.6416 304.965 108.367 312.457 117.915 320.205C119.945 321.852 122.738 323.285 124.913 324.897C130.428 328.987 138.426 335.522 144.843 337.715C144.363 325.947 144.65 312.922 144.577 300.972C142.049 299.722 137.503 296.442 135.063 294.677C123.135 286.06 111.926 276.027 100.49 266.745C98.0001 264.725 94.9265 261.337 92.661 259.81C89.1025 261.212 86.7395 265.207 83.9723 267.737C79.7608 271.59 75.8488 275.595 71.8991 279.715L71.8601 280.252ZM180.145 329.397C182.439 327.485 184.699 325.882 187.185 324.235C192.646 320.615 197.42 316.162 202.648 312.167C201.122 310.242 181.612 291.167 180.574 290.967C178.362 292.465 166.762 300.195 166.811 301.595C166.953 305.657 166.228 336.08 167.223 337.5C168.951 337.215 178.179 330.85 180.145 329.397Z" fill="#3A236C"></path>
<path d="M255.623 23.2946C261.663 21.2781 271.065 20.2553 277.535 18.7006C281.615 18.0091 286.055 16.1921 290.085 15.5331C304.533 13.1706 319.893 9.00807 334.335 7.25732C333.318 10.1583 332.958 13.0078 332.288 15.9723C331.163 20.9588 330.245 26.1401 329.105 31.1058L321.848 63.1201C320.9 67.2498 320.035 71.2548 319.213 75.4128C318.508 78.9703 317.66 81.7233 317.418 85.3678C312.693 82.0788 309.143 76.5668 304.7 72.7681C301.828 70.3126 297.36 63.0051 293.438 62.3916C291.2 63.9666 288.93 66.6348 286.98 68.6191L274.993 80.6973L231.243 124.254C228.753 126.765 226.03 129.135 223.535 131.64C214.345 140.863 205.043 150.013 195.884 159.255C192.629 162.539 188.275 166.545 185.42 170.082C190.152 180.058 188.492 184.649 186.416 194.422C183.239 200.962 181.736 204.597 175.495 208.878C174.397 209.632 172.892 210.906 171.773 211.535C169.216 212.099 166.561 213.45 163.942 214.156C155.948 216.312 148.311 214.628 140.73 211.853C136.069 215.161 131.043 221.202 126.948 225.366C126.054 226.274 121.783 229.995 121.415 230.57C119.328 233.842 109.419 241.282 108.2 244.002C104.793 247 95.5643 256.25 92.661 259.81C89.1025 261.212 86.7395 265.207 83.9723 267.737C79.7608 271.59 75.8488 275.595 71.8991 279.715L71.8601 280.252L71.6811 280.417C70.5943 281.395 68.9356 282.4 68.0421 283.385C63.8588 287.995 59.6511 291.695 55.0021 295.77C50.0098 291.845 43.4851 284.415 40.0656 279.06C43.1548 275.06 48.0258 270.807 51.6933 267.345C53.4121 265.722 54.8311 263.857 56.3673 262.065C58.9796 260.917 65.0341 254.12 67.3536 251.865L99.8118 219.911C103.451 216.359 106.934 213.875 110.497 209.869C113.692 206.277 118.21 203.292 121.343 199.286C122.708 197.54 124.502 196.624 126.135 194.4C121.738 183.575 124.128 167.99 133.211 160.015C135.645 157.878 137.988 155.641 140.947 154.252C150.525 149.753 159.717 150.147 169.451 153.571C171.726 151.975 177.116 146.519 179.193 144.428L192.869 130.744L252.925 71.4508C256.828 67.6006 260.268 63.5326 264.585 60.0176C266.043 58.6968 267.61 56.3836 269.118 55.1836C272.448 52.5318 275.56 48.5536 278.795 46.0296C272.22 40.9346 267.883 35.7931 262.053 30.0896C259.863 27.9468 258.095 25.2236 255.623 23.2946Z" fill="#189A76"></path>
<path d="M40.0655 279.06C33.6863 272.49 25.9723 261.825 21.3953 253.712C17.683 247.132 13.711 238.747 10.3773 231.907C9.23353 229.56 7.71678 224.123 6.86553 221.476C5.02228 215.743 3.25253 209.869 2.27528 203.919C1.61053 199.873 0.851776 195.109 0.756276 191.002C0.445276 177.627 0.527528 164.162 0.536278 150.781L0.523278 88.0779L0.513775 60.0462C0.498525 55.3242 0.108526 41.8424 1.20678 38.0842C5.30828 36.2794 13.4153 34.8497 18.0513 33.7287C27.0838 31.5447 36.291 28.8284 45.2713 26.6332L78.3205 18.8827L125.057 7.54942C132.487 5.70567 139.862 3.46792 147.415 2.02555C149.293 1.66695 155.061 0.16022 156.693 0.40582C167.29 2.00067 177.623 5.28867 187.999 7.81642L213.495 13.8237C217.285 14.7332 226.66 16.4952 229.44 18.9479C236.35 25.0432 243.27 33.3784 249.658 40.1934C251.753 42.4279 254.073 44.1512 256.065 46.2674L255.973 46.6722C253.953 46.7787 246.633 45.1292 244.428 44.6427C233.715 42.2802 223.085 39.3762 212.468 36.6654C202.945 34.2342 193.033 32.1787 183.493 29.8017C177.714 28.3617 173.346 26.2919 167.109 25.3264C166.803 34.2844 166.722 47.6684 167.141 56.5017C169.073 57.0447 172.373 57.6142 174.13 58.1672C177.283 59.1602 181.505 60.3217 184.464 61.1294C192.32 63.2747 226.603 70.1629 231.268 73.5544C231.313 74.0154 231.323 74.1507 231.043 74.5559C230.423 75.4582 229.36 76.2277 228.585 77.0217C225.998 79.6642 216.848 89.2269 213.683 89.8754C211.148 90.3952 182.187 83.4402 178.26 82.3834C172.362 80.7959 161.017 77.0262 155.388 76.9469C150.13 76.8729 138.357 80.8229 132.674 82.1974L76.7678 95.7062L76.7138 155.263C76.7083 163.144 76.6388 171.039 76.8183 178.916C76.9425 184.364 77.172 189.472 78.7093 194.75C80.3233 200.292 82.4868 205.518 84.777 210.804C85.3385 212.1 85.9253 213.198 86.2173 214.597C86.119 215.276 85.7643 215.864 85.2983 216.377C81.3053 220.769 77.3273 225.215 73.1915 229.467C72.7563 229.915 72.217 230.055 71.6205 230.115C71.135 229.975 70.8238 229.815 70.4615 229.455C64.7668 223.761 55.984 199.54 54.801 191.244C54.098 186.314 54.2463 181.202 54.249 176.233L54.2655 158.095L54.269 93.7552C53.493 92.6009 52.5688 91.5434 51.4873 90.6707C42.369 83.3124 32.9263 76.3822 23.8208 69.0167C23.369 68.6514 23.1695 68.7862 22.7373 68.9187C21.9045 70.9644 22.4535 172.913 22.512 184.252C22.5255 186.866 23.507 197.016 24.2163 200.365C28.16 218.992 36.555 238.642 48.4348 253.59C50.8228 256.595 53.213 259.917 56.3673 262.065C54.831 263.857 53.412 265.722 51.6933 267.345C48.0258 270.807 43.1548 275.06 40.0655 279.06ZM38.4808 51.3892C42.2463 54.9772 47.9395 59.3082 52.1313 62.7047C54.8175 64.7204 57.8383 66.9157 60.425 69.0147C63.152 71.2277 64.831 73.2509 67.9508 75.2104C77.525 73.7922 87.4763 70.3389 96.931 68.1909C107.423 65.8069 117.918 63.3864 128.398 60.9489C131.453 60.2387 134.706 59.0339 137.761 58.2277C139.967 57.6457 142.21 57.1839 144.383 56.5249C144.027 48.7372 144.676 40.2664 144.41 32.3949C144.357 30.8472 144.669 27.0059 144.428 25.7779L144.051 25.6592C139.418 25.9422 128.403 29.5804 122.843 30.8867L58.939 46.0357C52.0848 47.6482 45.1028 50.2192 38.4808 51.3892Z" fill="#3A236C"></path>
</g><defs>
<clipPath id="clip0_5_90">
<rect width="335" height="371" fill="white"></rect>
</clipPath>
</defs></svg>